# xmcd
#
# Track frame offsets:
#	150
#	20136
#	36774
#	53275
#	68848
#	83152
#	101840
#
# Disc length: 1686 seconds
#
# Revision: 0
# Processed by: cddbd v1.5.1PL0 Copyright (c) Steve Scherf et al.
# Submitted via: audiograbber 1.82.01
#
DISCID=52069407
DTITLE=Whiskey River - Remembering The Past
DYEAR=1998
DGENRE=Country
TTITLE0=Whiskey River - Don't Disturb
TTITLE1=Whiskey River - Bring it on Back
TTITLE2=Whiskey River - Hurts So Good
TTITLE3=Whiskey River - Need You Bad
TTITLE4=Whiskey River - Deep Inside
TTITLE5=Whiskey River - Mountian Music
TTITLE6=Whiskey River - Turn Me Lose
EXTD=
EXTT0=
EXTT1=
EXTT2=
EXTT3=
EXTT4=
EXTT5=
EXTT6=
PLAYORDER=
